<svg width="488" height="156" viewBox="0 0 488 156" fill="none" xmlns="http://www.w3.org/2000/svg">
<g clip-path="url(#clip0_3001_64182)">
<path d="M308.934 66.5614C307.221 62.8561 301.3 63.034 296.995 63.4902C292.954 63.9184 286.934 65.1179 280.894 66.6943C280.627 65.33 280.323 63.9749 279.993 62.6011C278.74 57.5082 276.588 52.5263 273.596 48.2509C272.807 47.0881 271.35 45.2981 270.449 44.1701C270.144 43.7891 269.84 43.4077 269.542 43.0228C269.278 42.6949 268.911 42.1623 268.56 41.926C267.746 41.3367 266.535 41.3601 265.755 41.9879C266.534 41.3706 267.74 41.3625 268.517 41.9792C268.853 42.2023 269.193 42.8044 269.416 43.1071C269.692 43.507 269.961 43.9113 270.226 44.3177C270.759 45.1268 271.282 45.947 271.771 46.7804C273.206 49.2559 274.186 51.9798 274.702 54.7491C275.411 58.4345 275.326 62.1822 275.09 65.9019C275.074 66.2045 275.05 66.6638 275.024 67.1752C268.876 61.4416 261.137 57.2625 252.5 55.3015C252.551 55.1857 252.605 55.0717 252.661 54.9619C253.118 54.0582 253.789 53.2254 254.432 52.4321C257.766 48.5489 261.689 45.1565 265.755 41.9879C263.912 43.4213 262.024 44.82 260.102 46.161C258.807 47.1167 257.497 48.0441 256.177 48.9724C254.528 50.152 252.845 51.2718 251.322 52.6364C250.621 53.282 249.993 53.9173 249.506 54.7173C246.84 54.2809 244.099 54.0529 241.303 54.0529C234.592 54.0529 228.202 55.3621 222.394 57.7275C222.014 57.4715 221.615 57.2393 221.197 57.0089C219.372 56.037 217.457 55.3453 215.558 54.5793C214.042 53.9845 212.537 53.3886 211.039 52.7613C208.835 51.9053 206.648 50.9861 204.498 50.0225C209.244 52.1546 213.909 54.5367 218.128 57.5314C218.691 57.9534 219.269 58.3937 219.794 58.8747C212.272 62.4583 205.865 67.8629 201.203 74.4851C200.157 71.2216 199.272 67.9008 199.048 64.4774C198.847 61.6709 199.108 58.8011 199.874 56.0666C200.137 55.1448 200.437 54.2278 200.749 53.3193C200.904 52.8635 201.063 52.4088 201.229 51.9569C201.373 51.578 201.548 50.9646 201.815 50.6543C202.412 49.8735 203.585 49.6066 204.498 50.0225C203.581 49.5927 202.401 49.8539 201.76 50.6126C201.479 50.9027 201.25 51.5643 201.085 51.9043C200.893 52.3469 200.695 52.7874 200.496 53.2277C199.919 54.5169 198.942 56.6038 198.476 57.9163C196.655 62.7582 195.829 68.0898 195.903 73.3218C195.949 75.7012 196.052 78.0113 196.304 80.3713C196.393 81.0872 196.502 81.812 196.683 82.5192C194.303 87.9864 192.988 93.9844 192.988 100.276C192.988 101.253 193.021 102.222 193.084 103.183C187.365 106.594 182.688 109.776 179.389 112.51C175.982 115.334 171.655 119.524 173.4 123.301C174.947 126.648 180.015 126.682 182.329 126.592C182.536 126.584 182.722 126.575 182.881 126.567C186.885 126.371 192.245 125.438 198.81 123.794C199.066 123.73 199.323 123.665 199.581 123.599C199.617 123.656 199.651 123.714 199.686 123.772C202.38 123.198 204.579 122.577 208.14 121.528C209.523 121.121 212.005 120.632 218.725 117.822C221.991 116.455 226.258 114.541 231.888 111.82C236.246 109.713 240.341 107.464 244.016 105.445C245.65 104.233 247.446 102.61 249.06 100.491C249.906 99.3801 250.702 98.1333 251.399 96.7378C251.696 96.1421 255.387 88.4667 252.941 79.6058C252.691 78.6978 252.452 78.0404 252.322 77.6947C252.607 78.175 253.03 78.8551 253.588 79.6395C254.633 81.1083 258.474 86.3803 265.019 89.2911C266.591 89.9899 268.157 90.4808 269.681 90.8135L270.979 90.815C270.812 90.8995 270.647 90.9839 270.48 91.0683C274.665 91.9821 278.523 91.6986 281.255 91.2281C281.67 91.0019 282.082 90.7762 282.49 90.5508C283.134 90.3937 283.643 90.2466 283.988 90.1421C283.41 90.4086 282.591 90.8136 281.654 91.3756C280.178 92.2616 274.785 95.7147 271.873 102.24C268.11 110.675 271.059 118.495 271.721 120.138C271.469 119.71 271.091 119.095 270.59 118.382C269.37 116.643 264.612 109.864 255.664 107.515C253.845 107.037 252.085 106.784 250.438 106.684C243.012 111.647 238.966 117.6 235.464 121.302C232.548 124.383 226.811 131.84 222.064 142.689C227.959 145.14 234.465 146.5 241.303 146.5C267.987 146.5 289.618 125.805 289.618 100.276C289.618 95.8651 288.97 91.599 287.764 87.5583C287.969 87.4383 288.173 87.3184 288.376 87.1988C289.704 86.4159 290.986 85.6408 292.216 84.8756C297.905 81.3356 302.233 78.1705 305.079 75.4683C306.449 74.1674 310.619 70.2085 308.934 66.5614ZM218.027 107.705C217.938 107.504 217.802 107.214 217.618 106.876C217.169 106.05 215.42 102.831 211.59 101.369C208.907 100.345 206.388 100.526 205.214 100.76L204.355 100.903C205.268 100.598 208.266 99.4755 210.265 96.408C210.427 96.159 212.455 92.9448 211.834 88.916C211.77 88.5031 211.699 88.2015 211.659 88.0427C211.76 88.2683 211.912 88.5887 212.118 88.9615C212.503 89.6597 213.926 92.1699 216.666 93.7656C220.216 95.834 224.021 95.2254 224.998 95.0409C224.729 95.1312 224.346 95.2711 223.903 95.475C223.206 95.7962 220.645 97.0652 219.021 99.8085C216.922 103.355 217.819 106.948 218.027 107.705ZM178.426 121.174C178.709 120.517 179.794 118.762 183.93 115.509C186.498 113.489 189.847 111.207 193.804 108.774C194.494 112.329 195.609 115.74 197.098 118.958C183.671 122.291 179.478 121.538 178.426 121.174ZM287.59 81.6632C287.237 81.8776 286.878 82.0928 286.517 82.3086C286.334 82.4174 286.15 82.5267 285.965 82.6359L285.718 82.0538C284.474 79.2822 282.954 76.651 281.192 74.1905C281.298 73.8959 281.381 73.5856 281.438 73.2597C281.529 72.7671 281.565 72.2698 281.565 71.7721C286.96 70.3404 292.511 69.2052 296.242 68.7125C301.233 68.0535 303.228 68.4511 303.907 68.6871C303.457 69.7311 300.987 73.5469 287.59 81.6632Z" fill="url(#paint0_radial_3001_64182)"/>
<path d="M265.755 41.9879C266.535 41.3601 267.746 41.3367 268.56 41.926C268.911 42.1623 269.279 42.6949 269.542 43.0228C269.84 43.4077 270.144 43.7891 270.449 44.1701C271.35 45.2981 272.807 47.0881 273.596 48.2509C276.588 52.5263 278.74 57.5082 279.993 62.6011C280.55 64.9204 281.036 67.1859 281.389 69.5338C281.551 70.7599 281.666 72.0246 281.438 73.2597C280.98 75.8608 278.914 77.4674 276.301 78.0251C273.595 78.5747 271.015 78.1033 268.47 77.3779C261.632 75.2129 255.535 71.0191 251.398 65.358C249.425 62.5388 247.666 58.731 249.175 55.335C249.69 54.2264 250.45 53.4397 251.322 52.6364C252.845 51.2718 254.528 50.152 256.177 48.9724C257.497 48.0441 258.807 47.1167 260.102 46.161C262.024 44.82 263.912 43.4213 265.755 41.9879ZM265.755 41.9879C261.689 45.1565 257.766 48.5489 254.432 52.432C253.789 53.2254 253.118 54.0582 252.661 54.9619C252.425 55.4231 252.22 55.9546 252.184 56.41C252.162 57.0358 252.318 57.6289 252.584 58.2108C254.925 63.1967 266.906 69.1531 272.388 70.5528C273.167 70.7627 274.151 70.9348 274.894 70.9319C275.045 70.9325 275.072 70.9295 274.988 71.0227C274.969 71.0538 274.932 71.0729 274.916 71.1078C274.751 71.2588 274.605 71.4473 274.527 71.6523C274.502 71.7396 274.501 71.7452 274.504 71.7762C274.505 71.7812 274.507 71.7944 274.509 71.7929C274.517 71.783 274.525 71.7764 274.537 71.7687C274.546 71.7703 274.552 71.7399 274.561 71.7214L274.587 71.6592C274.598 71.6429 274.606 71.6095 274.615 71.5765L274.643 71.4797C274.755 71.0339 274.802 70.5591 274.846 70.0918C274.927 69.2095 275.039 66.8264 275.09 65.9018C275.326 62.1822 275.411 58.4345 274.702 54.7491C274.186 51.9798 273.206 49.2559 271.771 46.7804C271.282 45.947 270.759 45.1268 270.226 44.3177C269.961 43.9113 269.692 43.507 269.416 43.1071C269.193 42.8044 268.853 42.2023 268.517 41.9792C267.74 41.3625 266.534 41.3706 265.755 41.9879Z" fill="#FFB709"/>
<path d="M204.498 50.0232C203.585 49.6072 202.412 49.8741 201.815 50.6549C201.548 50.9652 201.373 51.5787 201.229 51.9576C201.062 52.4094 200.904 52.8641 200.749 53.3199C200.437 54.2284 200.137 55.1455 199.874 56.0673C199.108 58.8017 198.847 61.6715 199.048 64.478C199.293 68.2176 200.325 71.8347 201.495 75.3884C201.784 76.2766 202.482 78.5453 202.793 79.3969C202.954 79.8407 203.12 80.2909 203.342 80.6965C203.342 80.6965 203.393 80.7839 203.393 80.7839C203.41 80.814 203.427 80.8443 203.441 80.8578L203.483 80.912C203.495 80.928 203.51 80.9559 203.518 80.9522C203.54 80.9539 203.557 80.9877 203.551 80.952C203.549 80.9131 203.48 80.8002 203.426 80.7482C203.308 80.6049 203.147 80.4904 202.982 80.399C202.876 80.3003 202.708 80.2733 202.959 80.2233C203.683 80.0511 204.592 79.6593 205.295 79.2745C210.248 76.6526 220.372 68.0979 221.384 62.7105C221.495 62.0842 221.496 61.4719 221.315 60.8705C221.167 60.4365 220.833 59.9669 220.486 59.5761C219.814 58.8061 218.954 58.1506 218.127 57.532C213.909 54.5373 209.244 52.1552 204.498 50.0232ZM204.498 50.0232C206.648 50.9867 208.835 51.9059 211.038 52.7619C212.537 53.3892 214.042 53.9852 215.558 54.58C217.457 55.346 219.372 56.0376 221.197 57.0095C222.245 57.5876 223.182 58.1741 223.963 59.1302C226.287 62.0763 225.544 66.1766 224.344 69.3697C221.765 75.8208 216.91 81.303 210.824 84.9885C208.538 86.2823 206.156 87.3362 203.39 87.4313C200.717 87.4957 198.303 86.4172 197.199 83.9984C196.665 82.8531 196.457 81.5992 196.304 80.372C196.052 78.012 195.949 75.7019 195.903 73.3224C195.829 68.0905 196.655 62.7588 198.476 57.9169C198.942 56.6044 199.919 54.5175 200.496 53.2283C200.695 52.788 200.893 52.3475 201.085 51.9049C201.25 51.5649 201.479 50.9033 201.76 50.6133C202.4 49.8546 203.581 49.5933 204.498 50.0232Z" fill="#FFB709"/>
<path d="M285.717 82.0517C284.088 78.4215 281.987 75.0313 279.487 71.9514C278.287 70.472 276.994 69.0643 275.618 67.736C266.863 59.2854 254.722 54.0508 241.303 54.0508C214.619 54.0508 192.988 74.7457 192.988 100.274C192.988 101.251 193.021 102.22 193.083 103.181C193.206 105.078 193.448 106.944 193.803 108.772C194.494 112.326 195.609 115.738 197.097 118.956L199.581 123.597C199.616 123.654 199.651 123.712 199.686 123.77C202.38 123.196 204.579 122.575 208.14 121.526C209.523 121.119 212.005 120.63 218.724 117.819L244.334 102.52C245.922 101.848 247.497 101.171 249.06 100.488C249.906 99.378 250.702 98.1312 251.398 96.7357C251.696 96.14 255.387 88.4646 252.941 79.6037C252.69 78.6957 252.452 78.0383 252.322 77.6926C252.607 78.1729 253.03 78.853 253.588 79.6374C254.632 81.1063 258.474 86.3783 265.019 89.289C266.59 89.9878 268.157 90.4788 269.681 90.8114L274.953 90.8177L280.456 90.9712C282.098 90.6883 283.335 90.338 283.988 90.14C283.41 90.4065 282.591 90.8115 281.654 91.3736C280.178 92.2595 274.785 95.7126 271.873 102.238C268.109 110.673 271.058 118.493 271.721 120.136C271.469 119.708 271.09 119.093 270.59 118.38C269.369 116.641 264.611 109.862 255.664 107.513C253.845 107.035 252.085 106.782 250.438 106.682C243.012 111.645 238.966 117.598 235.464 121.299C232.548 124.381 226.811 131.838 222.064 142.687C227.959 145.138 234.465 146.498 241.303 146.498C267.986 146.498 289.618 125.803 289.618 100.274C289.618 95.6391 288.904 91.1635 287.577 86.9419L286.836 84.68L285.717 82.0517ZM223.903 95.4729C223.205 95.7941 220.645 97.0632 219.021 99.8065C216.922 103.353 217.819 106.946 218.027 107.703C217.937 107.502 217.802 107.212 217.618 106.874C217.169 106.048 215.419 102.829 211.59 101.367C208.907 100.343 206.388 100.523 205.214 100.758L204.355 100.901C205.267 100.596 208.266 99.4735 210.265 96.4059C210.427 96.157 212.455 92.9427 211.834 88.9139C211.77 88.501 211.699 88.1995 211.659 88.0406C211.76 88.2662 211.912 88.5866 212.117 88.9595C212.503 89.6576 213.926 92.1678 216.665 93.7635C220.216 95.832 224.021 95.2233 224.998 95.0388C224.729 95.1291 224.346 95.2691 223.903 95.4729Z" fill="url(#paint1_radial_3001_64182)"/>
<path d="M289.618 100.274C289.618 96.0171 289.014 91.8952 287.888 87.9805C286.871 88.5552 286.124 88.942 285.729 89.1439C284.731 89.6533 283.872 90.0575 283.093 90.3951C283.457 90.2977 283.759 90.2094 283.988 90.14C283.41 90.4065 282.591 90.8115 281.654 91.3736C280.178 92.2595 274.785 95.7126 271.873 102.238C268.11 110.673 271.059 118.493 271.721 120.136C271.469 119.708 271.091 119.093 270.59 118.38C269.37 116.641 264.612 109.862 255.664 107.513C253.846 107.035 252.085 106.782 250.438 106.682C243.012 111.645 238.966 117.598 235.464 121.299C232.548 124.381 226.811 131.837 222.064 142.687C227.959 145.138 234.465 146.498 241.303 146.498C267.987 146.498 289.618 125.803 289.618 100.274Z" fill="url(#paint2_radial_3001_64182)"/>
<path d="M281.526 71.7809C286.933 70.3443 292.502 69.2049 296.242 68.711C301.233 68.052 303.227 68.4496 303.907 68.6856C303.457 69.7296 300.986 73.5454 287.59 81.6617C287.236 81.8761 286.878 82.0913 286.516 82.3071C285.528 82.8968 284.511 83.4919 283.466 84.0915C279.499 86.3683 275.137 88.7099 270.48 91.0668C274.665 91.9806 278.523 91.6971 281.255 91.2266C282.73 90.4232 284.165 89.6246 285.555 88.8328C286.517 88.2841 287.457 87.7389 288.376 87.1973C289.704 86.4144 290.986 85.6393 292.215 84.8741C297.905 81.3341 302.232 78.169 305.079 75.4668C306.449 74.1659 310.619 70.207 308.934 66.5599C307.221 62.8546 301.3 63.0325 296.995 63.4887C292.929 63.9196 286.857 65.1314 280.779 66.7226" fill="#FFB709"/>
<path d="M205.706 116.605C203.543 117.245 201.45 117.831 199.439 118.359C198.628 118.572 197.849 118.771 197.098 118.958C183.671 122.291 179.478 121.537 178.426 121.174C178.709 120.517 179.794 118.762 183.93 115.509C186.498 113.489 189.847 111.207 193.804 108.774C193.449 106.946 193.207 105.08 193.084 103.183C187.365 106.594 182.688 109.776 179.389 112.51C175.982 115.334 171.655 119.524 173.4 123.301C174.947 126.648 180.015 126.682 182.329 126.592C182.536 126.583 182.722 126.574 182.881 126.567C186.885 126.371 192.245 125.438 198.81 123.794C199.066 123.73 199.323 123.665 199.581 123.599C201.835 123.024 204.19 122.377 206.632 121.663C210.467 120.542 214.518 119.254 218.725 117.821C221.991 116.455 226.258 114.54 231.888 111.82C236.246 109.713 240.341 107.463 244.016 105.445C245.65 104.233 247.446 102.61 249.06 100.49C247.498 101.172 245.922 101.85 244.334 102.522C230.653 108.309 217.193 113.21 205.706 116.605Z" fill="url(#paint3_radial_3001_64182)"/>
</g>
<g clip-path="url(#clip1_3001_64182)">
<path d="M288.191 109.73C289.636 112.36 288.609 114.04 290.269 115.644C291.458 116.793 292.341 116.276 293.197 117.43C293.545 117.899 293.675 118.357 293.709 118.82C298.689 118.712 303.188 117.041 306.717 115.152C305.156 114.378 303.811 114.886 302.629 113.457C301.184 111.711 301.884 109.372 300.735 108.963C299.717 108.601 298.657 110.252 297.887 109.849C296.956 109.362 298.171 106.773 296.988 105.597C296.013 104.629 294.403 105.6 293.282 105.296C293.769 103.216 293.263 101.432 293.464 99.1061C291.083 100.361 288.042 101.861 284.029 105.052C284.178 105.328 284.348 105.61 284.544 105.897C286.075 108.144 287.036 107.627 288.191 109.73Z" fill="#7B3430"/>
<path d="M302.069 82.4246C303.183 82.1067 303.819 84.7327 307.358 86.2347C309.861 87.2972 310.39 86.3423 312.499 87.4867C315.137 88.9183 315.185 90.8872 317.449 91.3387C319.07 91.6619 319.532 90.7498 320.876 91.2573C322.184 91.7509 322.413 92.8649 323.064 93.8841C324.402 88.4217 324.545 83.3451 324.809 80.1162C324.802 80.0879 324.795 80.0597 324.788 80.0313C324.399 79.7843 323.984 79.5771 323.538 79.4347C323.047 79.278 322.518 79.1991 321.943 79.2308C319.791 79.3494 319.075 80.8995 317.071 80.4332C314.864 79.9193 314.001 77.6341 312.839 78.0049C311.811 78.3331 311.97 80.2893 311.114 80.4356C310.079 80.6125 309.473 77.8156 307.819 77.597C306.458 77.4171 305.768 79.1655 304.692 79.6025C303.537 77.0305 301.323 75.9168 299.98 72.3632C299.756 70.8813 299.857 69.6593 300.444 69.2852C301.421 68.6627 302.78 70.9989 306.6 71.4297C309.302 71.7345 309.535 70.6685 311.883 71.1641C314.82 71.7841 315.428 73.6581 317.726 73.4453C319.371 73.293 319.554 72.2868 320.987 72.39C321.324 72.4143 321.611 72.4922 321.865 72.6066C320.694 70.5049 319.207 68.4616 317.326 66.5665C313.416 62.625 305.009 56.5035 300.849 59.1108C296.143 62.0601 300.51 73.8968 300.982 84.0694C301.227 83.1844 301.591 82.5611 302.069 82.4246Z" fill="#7B3430"/>
<path d="M280.657 110.833C280.334 110.338 279.82 110.17 279.257 110.097C278.88 110.803 278.577 111.587 278.391 112.463C278.373 112.549 278.309 112.869 278.264 113.352C278.925 113.89 279.673 114.447 280.506 114.99C280.098 114.154 281.498 112.119 280.657 110.833Z" fill="#7B3430"/>
<path d="M283.621 114.905C282.843 114.426 281.734 115.35 281.006 115.31C281.93 115.882 282.952 116.431 284.07 116.918C284.103 115.991 284.167 115.241 283.621 114.905Z" fill="#7B3430"/>
<path d="M304.124 102.948C306.085 105.221 305.432 107.078 307.389 108.302C308.791 109.178 309.547 108.489 310.624 109.439C311.478 110.192 311.516 111.077 311.635 112.019C313.293 110.782 314.301 109.824 314.473 109.657C317.819 106.391 320.024 102.644 321.498 98.8731C321.436 98.8264 321.373 98.7805 321.309 98.7366C320.883 98.4466 320.399 98.2202 319.838 98.0866C317.741 97.5865 316.612 98.8676 314.825 97.8495C312.855 96.7276 312.68 94.292 311.461 94.316C310.381 94.3372 309.975 96.257 309.113 96.153C308.07 96.0273 308.288 93.1748 306.764 92.4936C305.511 91.9331 304.35 93.4115 303.194 93.5236C302.884 91.1965 301.58 89.6284 300.996 86.9805C300.837 90.7609 299.903 94.1364 297.439 96.4927C297.847 97.4772 298.465 98.7199 299.759 99.9579C301.724 101.837 302.557 101.132 304.124 102.948Z" fill="#7B3430"/>
<path d="M317.726 73.4453C315.428 73.658 314.82 71.7841 311.883 71.164C309.535 70.6684 309.302 71.7344 306.6 71.4297C302.78 70.9989 301.421 68.6626 300.444 69.2851C299.857 69.6593 299.756 70.8813 299.98 72.3631C301.324 75.9167 303.538 77.0305 304.693 79.6025C305.768 79.1654 306.458 77.4171 307.819 77.597C309.473 77.8156 310.079 80.6124 311.114 80.4355C311.97 80.2893 311.811 78.333 312.84 78.0048C314.001 77.6341 314.864 79.9192 317.072 80.4331C319.075 80.8994 319.791 79.3493 321.943 79.2307C322.518 79.1991 323.047 79.2779 323.538 79.4346C323.984 79.577 324.399 79.7842 324.788 80.0313C324.162 77.5715 323.227 75.0497 321.866 72.6065C321.611 72.4921 321.324 72.4143 320.987 72.39C319.554 72.2868 319.372 73.2929 317.726 73.4453Z" fill="#984138"/>
<path d="M300.744 85.2443C300.79 85.877 300.879 86.4504 300.996 86.9813C301.036 86.0338 301.027 85.061 300.981 84.0723C300.883 84.4261 300.804 84.8205 300.744 85.2443Z" fill="#984138"/>
<path d="M303.195 93.5238C304.35 93.4117 305.511 91.9333 306.765 92.4938C308.288 93.1749 308.07 96.0275 309.113 96.1532C309.976 96.2571 310.382 94.3374 311.461 94.3162C312.681 94.2922 312.855 96.7277 314.825 97.8496C316.613 98.8678 317.742 97.5867 319.839 98.0868C320.399 98.2204 320.884 98.4467 321.309 98.7368C321.374 98.7807 321.436 98.8266 321.498 98.8733C322.151 97.2026 322.661 95.5271 323.063 93.8864C322.412 92.8671 322.183 91.7531 320.875 91.2595C319.531 90.752 319.069 91.6641 317.448 91.3409C315.184 90.8894 315.136 88.9205 312.498 87.4889C310.389 86.3446 309.86 87.2994 307.357 86.2369C303.818 84.735 303.182 82.1089 302.068 82.4268C301.59 82.5634 301.226 83.1866 300.981 84.0716C301.027 85.0603 301.036 86.0331 300.996 86.9807C301.581 89.6286 302.884 91.1967 303.195 93.5238Z" fill="#984138"/>
<path d="M296.988 105.596C298.172 106.772 296.956 109.361 297.887 109.848C298.657 110.25 299.718 108.6 300.735 108.962C301.885 109.371 301.184 111.71 302.629 113.456C303.812 114.885 305.156 114.377 306.717 115.151C308.688 114.096 310.356 112.973 311.636 112.018C311.517 111.076 311.48 110.191 310.625 109.438C309.548 108.487 308.792 109.176 307.391 108.3C305.433 107.077 306.086 105.219 304.125 102.947C302.558 101.13 301.725 101.836 299.76 99.9564C298.466 98.7184 297.848 97.4756 297.44 96.4912C297.325 96.6006 297.209 96.7085 297.088 96.8134C296.071 97.6948 294.885 98.3564 293.464 99.105C293.264 101.431 293.77 103.214 293.283 105.294C294.404 105.599 296.014 104.628 296.988 105.596Z" fill="#984138"/>
<path d="M280.657 110.833C281.498 112.119 280.098 114.155 280.506 114.991C280.67 115.097 280.836 115.204 281.006 115.309C281.734 115.349 282.843 114.425 283.621 114.904C284.167 115.24 284.103 115.99 284.071 116.917C285.094 117.363 286.198 117.759 287.384 118.072C289.551 118.645 291.67 118.863 293.71 118.818C293.676 118.355 293.546 117.897 293.197 117.428C292.341 116.274 291.459 116.791 290.27 115.642C288.61 114.039 289.636 112.358 288.191 109.728C287.037 107.625 286.075 108.142 284.544 105.895C284.349 105.608 284.179 105.326 284.029 105.05C283.649 105.353 283.26 105.669 282.861 106.004C281.654 107.016 280.216 108.304 279.257 110.097C279.82 110.17 280.334 110.338 280.657 110.833Z" fill="#984138"/>
<path d="M308.38 116.58C308.085 116.158 307.712 115.775 307.235 115.451C307.06 115.333 306.887 115.234 306.717 115.149C303.188 117.038 298.689 118.71 293.71 118.818C293.771 119.656 293.515 120.51 293.659 121.47C293.699 121.737 293.769 122.011 293.886 122.296C294.571 123.966 296.219 124.466 297.493 124.978C303.204 124.201 307.391 121.574 309.476 120.23C309.502 120.213 309.527 120.196 309.553 120.18C309.378 118.955 309.125 117.643 308.38 116.58Z" fill="#591F23"/>
<path d="M323.454 94.4102C323.632 94.6127 323.839 94.8055 324.092 94.9819C324.556 95.3062 325.037 95.4817 325.52 95.5632C325.953 92.5316 326.428 86.5429 324.809 80.1172C324.544 83.3461 324.401 88.4227 323.064 93.8851C323.178 94.0644 323.305 94.2407 323.454 94.4102Z" fill="#591F23"/>
<path d="M279.391 119.173C281.551 123.068 286.237 124.435 289.812 124.922C289.743 124.591 289.647 124.264 289.512 123.948C289.311 123.474 289.026 123.021 288.627 122.606C287.134 121.052 285.49 121.517 284.537 119.695C284.039 118.741 284.042 117.758 284.07 116.919C282.952 116.431 281.93 115.883 281.006 115.311C280.873 115.304 280.753 115.265 280.65 115.18C280.587 115.127 280.54 115.064 280.506 114.992C279.672 114.449 278.925 113.892 278.264 113.354C278.146 114.601 278.153 116.94 279.391 119.173Z" fill="#591F23"/>
<path d="M314.474 109.656C314.302 109.823 313.294 110.781 311.636 112.018C311.688 112.436 311.757 112.864 311.919 113.297C312.013 113.55 312.139 113.803 312.313 114.058C313.019 115.093 314.062 115.48 315.087 115.698C319.803 110.983 322.438 105.646 323.827 101.954C323.231 100.858 322.551 99.6678 321.498 98.8722C320.024 102.643 317.82 106.39 314.474 109.656Z" fill="#591F23"/>
<path d="M324.091 94.9815C323.839 94.8051 323.632 94.6123 323.454 94.4098C323.305 94.2404 323.178 94.064 323.063 93.8848C322.661 95.5255 322.152 97.201 321.499 98.8717C322.551 99.6673 323.231 100.858 323.828 101.954C324.706 99.6205 325.088 97.9442 325.183 97.5003C325.241 97.2295 325.378 96.5539 325.52 95.5628C325.036 95.4813 324.555 95.3058 324.091 94.9815Z" fill="#7B3430"/>
<path d="M312.313 114.058C312.139 113.804 312.014 113.55 311.919 113.298C311.757 112.864 311.688 112.436 311.636 112.019C310.355 112.974 308.687 114.097 306.717 115.152C306.887 115.236 307.059 115.335 307.235 115.454C307.711 115.777 308.084 116.16 308.38 116.582C309.125 117.646 309.377 118.957 309.552 120.182C311.657 118.817 313.491 117.294 315.087 115.699C314.062 115.48 313.02 115.093 312.313 114.058Z" fill="#7B3430"/>
<path d="M280.649 115.179C280.752 115.265 280.872 115.303 281.004 115.31C280.834 115.205 280.668 115.099 280.505 114.992C280.539 115.063 280.586 115.127 280.649 115.179Z" fill="#984138"/>
<path d="M293.886 122.297C293.769 122.012 293.699 121.738 293.659 121.472C293.515 120.511 293.771 119.658 293.71 118.819C291.67 118.864 289.55 118.646 287.383 118.073C286.197 117.76 285.094 117.364 284.07 116.918C284.041 117.757 284.039 118.74 284.537 119.694C285.49 121.517 287.134 121.051 288.627 122.605C289.026 123.021 289.311 123.473 289.512 123.947C289.647 124.263 289.743 124.59 289.812 124.921C291.642 125.171 293.182 125.19 293.941 125.199C295.181 125.214 296.366 125.132 297.493 124.979C296.219 124.467 294.571 123.968 293.886 122.297Z" fill="#7B3430"/>
<ellipse opacity="0.32" cx="262.804" cy="89.3639" rx="44.9809" ry="15.8885" transform="rotate(41.0079 262.804 89.3639)" fill="#591F23"/>
<path d="M226.597 73.9368C225.613 71.0835 224.999 70.7152 222.61 65.3562C219.822 59.1037 220.149 58.4658 220.368 58.2058C221.605 56.7317 226.999 58.2597 230.298 61.6033C230.713 62.0239 231.081 62.4593 231.407 62.9021C231.794 62.8372 232.112 62.7862 232.253 62.5603C233.337 60.8303 224.081 49.7731 219.15 51.9219C215.425 53.5457 215.31 62.2135 216.536 66.5459C217.23 68.9987 219.714 74.872 220.37 76.2326L220.37 76.2327C220.379 76.2493 221.756 78.7901 223.125 78.7886C223.471 78.8445 223.769 78.8138 223.97 78.7779C223.97 78.7779 224.439 79.6806 225.118 79.9289C225.696 80.1401 226.374 79.8586 226.777 79.5311C227.167 79.214 227.336 78.8238 227.407 78.6213C227.326 78.6705 227.312 78.6736 227.414 78.6011C227.412 78.6074 227.409 78.6146 227.407 78.6213C227.477 78.5785 227.597 78.5007 227.735 78.4064C227.535 77.207 227.211 75.7189 226.597 73.9368Z" fill="#7B3430"/>
<path d="M227.406 78.6235C227.408 78.6168 227.411 78.6098 227.413 78.6035C227.311 78.6752 227.326 78.6722 227.406 78.6235Z" fill="#7B3430"/>
<path d="M229.203 73.4523C229.203 73.4523 228.996 69.7901 229.038 66.489C229.053 65.3292 229.096 64.4673 229.713 63.7253C230.225 63.1088 230.879 62.9947 231.406 62.9064C231.079 62.4636 230.712 62.0282 230.297 61.6076C226.997 58.264 221.603 56.736 220.366 58.2101C220.148 58.4701 219.82 59.108 222.608 65.3605C224.997 70.7195 225.611 71.0878 226.595 73.9411C227.21 75.7232 227.533 77.2113 227.733 78.4107C228.014 78.2181 228.367 77.9575 228.513 77.7894C229.374 76.797 229.322 75.541 229.203 73.4523Z" fill="#591F23"/>
<path d="M240.551 64.8929C238.534 59.9221 238.09 54.9873 239.797 50.8142C239.635 51.0817 239.483 51.3561 239.342 51.638C236.98 56.3656 237.553 62.2074 240.206 68.1514C240.858 68.2158 241.533 68.2982 242.228 68.3966C241.587 67.233 241.025 66.062 240.551 64.8929Z" fill="#BC673E"/>
<path d="M291.673 50.2455C290.635 49.727 289.572 49.2321 288.488 48.7618C302.338 56.8414 304.337 68.4297 298.936 79.2415C297.002 83.1126 294.067 86.2273 290.404 88.3442C293.759 90.9838 296.078 93.5219 297.469 95.9037C301.947 93.6976 305.474 90.2218 307.692 85.7817C313.908 73.3396 310.547 59.6745 291.673 50.2455Z" fill="#AB472E"/>
<path d="M289.773 88.6975C282.641 92.5117 272.923 92.6539 262.493 87.4435C253.788 83.0945 246.358 75.9009 242.227 68.3967C241.532 68.2983 240.857 68.2159 240.205 68.1515C244.535 77.851 254.405 87.8227 266.107 93.669C278.246 99.7331 289.4 99.8815 297.468 95.9056C296.077 93.5238 293.758 90.9857 290.403 88.3461C290.195 88.4662 289.985 88.5838 289.773 88.6975Z" fill="#591F23"/>
<path d="M240.551 64.8911C241.026 66.0602 241.588 67.2312 242.228 68.3948C251.885 69.7629 265.429 74.3364 276.8 80.0171C282.49 82.8596 286.986 85.6546 290.404 88.3442C294.067 86.2272 297.002 83.1126 298.936 79.2414C304.337 68.4297 302.338 56.8414 288.488 48.7617C270.312 40.8744 246.395 39.9213 239.797 50.8124C238.09 54.9855 238.535 59.9203 240.551 64.8911Z" fill="#BC673E"/>
<path d="M242.228 68.3937C246.358 75.8979 253.789 83.0915 262.494 87.4405C272.924 92.6509 282.642 92.5087 289.774 88.6945C289.986 88.5808 290.196 88.4632 290.404 88.3431C286.985 85.6535 282.49 82.8585 276.8 80.016C265.429 74.3353 251.885 69.7618 242.228 68.3937Z" fill="#7B3430"/>
<path d="M295.799 84.2892C282.104 83.6948 277.935 86.5475 277.283 88.985C276.801 90.7857 277.798 93.8354 275.665 96.3663C274.015 98.3234 271.962 98.2292 271.376 100.041C271.214 100.545 271.203 101.076 271.297 101.604C275.397 100.185 280.956 97.7088 286.638 93.3166C290.483 90.3452 293.485 87.191 295.799 84.2892Z" fill="#7B3430"/>
<path d="M273.281 105.126C277.145 109.011 284.513 107.093 286.063 106.69C292.059 105.129 295.676 101.314 299.083 97.9622C303.793 93.3282 306.438 88.548 307.864 85.4302C303.192 84.7974 299.202 84.4371 295.799 84.2894C293.485 87.1912 290.482 90.3454 286.638 93.3168C280.956 97.709 275.396 100.185 271.296 101.604C271.538 102.97 272.477 104.318 273.281 105.126Z" fill="#591F23"/>
<path d="M281.358 109.036C283.198 107.229 281.503 100.973 277.384 98.2848C272.256 94.9375 264.188 97.6557 263.723 100.353C263.276 102.945 269.766 106.017 272.037 107.092C275.045 108.516 279.663 110.702 281.358 109.036Z" fill="#7B3430"/>
<path d="M240.483 87.2305C241.642 89.0375 243.643 89.7032 245.78 90.2834C251.236 91.7647 254.747 92.7181 260.606 92.605C263.142 92.556 266.559 92.2978 270.551 91.4235C273.661 90.2548 276.144 89.0673 277.669 88.2986L253.046 75.238C253.182 75.9322 253.341 77.3226 252.56 78.4696C251.923 79.4036 250.967 79.7309 249.665 80.1227C245.961 81.2377 241.77 82.1885 241.77 82.1885C240.942 82.3763 240.23 82.5407 239.617 82.7289C239.682 83.8595 239.406 85.5509 240.483 87.2305Z" fill="#7B3430"/>
<path d="M236.546 85.8686C236.54 85.873 236.533 85.8782 236.526 85.883C236.496 85.9896 236.498 86.007 236.546 85.8686Z" fill="#591F23"/>
<path d="M237.108 84.3668C236.897 84.6922 236.603 85.6022 236.525 85.8843C236.532 85.8794 236.539 85.8743 236.546 85.8698C236.497 86.0083 236.496 85.9909 236.525 85.8843C236.32 86.0291 235.935 86.3459 235.704 86.8873C235.466 87.4466 235.368 88.3005 235.793 88.8825C236.292 89.5666 237.46 89.8022 237.46 89.8022C237.485 90.0396 237.546 90.3846 237.721 90.7565C238.164 92.3019 241.491 93.0297 241.491 93.0297C251.463 95.211 254.601 95.0266 254.601 95.0266C260.549 94.677 266.171 93.0685 270.55 91.4229C266.558 92.2971 263.142 92.5554 260.605 92.6043C254.747 92.7174 251.235 91.764 245.78 90.2828C243.643 89.7025 241.641 89.0368 240.483 87.2299C239.406 85.5502 239.682 83.8588 239.616 82.7282C238.459 83.0836 237.657 83.5238 237.108 84.3668Z" fill="#591F23"/>
<path d="M243.217 27.8824C243.732 25.835 242.353 23.6079 239.596 19.1537C237.892 16.4007 236.059 13.5063 234.168 13.7749C232.935 13.9501 232.187 15.3968 231.735 16.3005C226.807 26.1351 224.344 31.0524 225.165 32.2298C227.948 36.2217 241.803 33.5106 243.217 27.8824Z" fill="#EBE6E0"/>
<path d="M227.986 33.5931C229.018 33.4136 229.491 31.0823 229.044 28.3861C228.597 25.6899 227.398 23.6497 226.366 23.8292C225.334 24.0088 224.86 26.34 225.308 29.0362C225.755 31.7324 226.954 33.7726 227.986 33.5931Z" fill="#EBE6E0"/>
<path d="M228.219 34.88C229.113 34.3259 228.694 31.9882 227.285 29.6587C225.875 27.3291 224.009 25.8898 223.115 26.4439C222.222 26.9981 222.64 29.3357 224.05 31.6653C225.459 33.9949 227.326 35.4342 228.219 34.88Z" fill="#EBE6E0"/>
<path d="M234.638 29.3067C236.08 27.9442 236.173 25.9186 236.223 24.8214C236.366 21.6712 234.77 19.0682 234.483 19.1516C234.308 19.2025 234.801 20.2012 234.428 21.4454C233.969 22.9723 232.633 23.4454 230.773 24.8692C229.387 25.93 226.668 28.0115 227.017 29.2339C227.425 30.6627 232.217 31.5925 234.638 29.3067Z" fill="#BC673E"/>
<path d="M267.472 33.6108C268.567 31.4766 271.41 30.6197 277.096 28.9059C280.611 27.8466 284.342 26.7647 285.752 28.4225C286.672 29.5032 286.226 31.302 285.935 32.4145C282.77 44.5223 281.188 50.5763 279.606 50.9596C274.244 52.2594 264.462 39.4774 267.472 33.6108Z" fill="#EBE6E0"/>
<path d="M281.876 48.1247C284.277 46.1642 285.619 43.8187 284.874 42.886C284.129 41.9532 281.579 42.7864 279.178 44.747C276.777 46.7075 275.435 49.053 276.18 49.9858C276.926 50.9185 279.476 50.0853 281.876 48.1247Z" fill="#EBE6E0"/>
<path d="M280.984 51.3123C283.93 50.3914 286.037 48.7146 285.691 47.5671C285.344 46.4196 282.675 46.2359 279.729 47.1568C276.782 48.0777 274.675 49.7545 275.022 50.902C275.368 52.0495 278.038 52.2332 280.984 51.3123Z" fill="#EBE6E0"/>
<path d="M273.722 41.3036C273.512 39.0517 274.95 37.2551 275.73 36.2819C277.966 33.4878 281.277 32.4752 281.459 32.763C281.57 32.9386 280.402 33.4172 279.788 34.7602C279.035 36.4083 279.82 37.8216 280.34 40.4412C280.727 42.393 281.486 46.2225 280.273 47.0008C278.855 47.9105 274.073 45.0815 273.722 41.3036Z" fill="#BC673E"/>
<path d="M273.16 63.2471C273.78 63.0002 275.397 62.3211 275.544 61.1813C275.677 60.145 274.482 59.6021 274.569 58.5725C274.681 57.2537 276.741 56.9652 277.635 55.9816C279.852 53.5428 276.603 44.9609 269.469 36.7296C265.628 32.2977 261.954 29.4585 259.195 27.5756C257.949 27.1483 256.666 26.7801 255.349 26.478C241.144 23.2198 227.253 28.1694 220.474 36.0497C220.38 36.0907 220.289 36.1496 220.206 36.2299C218.488 37.8809 216.048 40.2402 214.775 41.4712C214.35 41.8824 214.428 42.5879 214.933 42.8892L215.876 43.4526C216.176 43.6316 216.341 44.152 216.331 44.6177C216.314 44.7351 216.299 44.8522 216.286 44.9691C216.252 45.0988 216.2 45.2128 216.128 45.2977L214.11 47.6641C213.735 48.1029 213.862 48.7776 214.369 49.0433L218.003 53.1589C221.74 59.846 230.938 65.2182 242.49 68.3542C244.916 68.7597 247.554 69.0513 250.351 69.147C250.351 69.1471 257.714 69.3991 273.16 63.2471Z" fill="#BC673E"/>
<path d="M277.229 67.31C277.229 67.31 277.229 67.31 277.229 67.31L282.318 65.1794C282.89 65.1612 283.298 64.6093 283.153 64.0511L282.304 60.7997C282.43 60.4324 282.542 60.0548 282.639 59.6662C282.758 59.5873 282.897 59.5348 283.05 59.5214L284.493 59.3948C285.078 59.3434 285.456 58.7427 285.253 58.1873C284.644 56.5247 283.475 53.3375 282.649 51.1033C282.589 50.9407 282.494 50.8133 282.379 50.7194C279.932 41.4867 271.309 31.7307 259.196 27.5767C261.954 29.4596 265.629 32.2988 269.47 36.7308C276.603 44.962 279.852 53.5439 277.636 55.9827C276.741 56.9663 274.682 57.2548 274.57 58.5736C274.483 59.6032 275.677 60.1461 275.544 61.1824C275.398 62.3222 273.781 63.0013 273.161 63.2482C257.715 69.4002 250.352 69.1482 250.352 69.1482C247.554 69.0524 244.917 68.7608 242.491 68.3553C243.499 68.6291 244.525 68.886 245.568 69.1251C258.564 72.106 270.454 71.8931 277.229 67.31Z" fill="#AB472E"/>
<path d="M231.649 58.1057C231.47 57.6215 230.297 54.3116 231.483 50.5214C232.976 45.749 238.564 42.4995 241.713 41.9574C242.914 41.7507 244.608 41.2673 247.212 43.2185C250.628 45.7784 252.343 52.2794 251.002 57.3377C250.778 58.1808 250.029 60.8786 247.901 62.8145C242.994 67.2795 234.077 64.665 231.649 58.1057Z" fill="#EBE6E0"/>
<path d="M260.56 51.8321C263.103 50.2188 263.879 46.8355 262.294 44.2754C260.709 41.7153 257.363 40.9478 254.82 42.5612C252.278 44.1746 251.502 47.5579 253.087 50.118C254.672 52.6781 258.018 53.4455 260.56 51.8321Z" fill="#242423"/>
<path d="M256.159 50.5839C258.497 51.1201 260.831 49.6385 261.374 47.2746C261.916 44.9108 260.46 42.5598 258.123 42.0236C255.785 41.4874 253.45 42.969 252.908 45.3329C252.366 47.6967 253.821 50.0477 256.159 50.5839Z" fill="#383837"/>
<path d="M235.823 51.2617C236.683 52.017 237.973 52.9377 239.706 53.4477C242.263 54.1997 244.975 53.5196 245.025 53.8005C245.089 54.1583 241.42 56.6577 238.777 55.4827C236.674 54.5474 235.927 51.6479 235.823 51.2617Z" fill="#BC673E"/>
<path d="M246.961 48.302C247.372 46.9568 245.907 45.3131 243.688 44.6305C241.47 43.948 239.337 44.4851 238.926 45.8303C238.514 47.1754 239.98 48.8192 242.198 49.5017C244.417 50.1843 246.549 49.6472 246.961 48.302Z" fill="#242423"/>
<path d="M245.785 47.5851C246.109 46.526 244.955 45.2318 243.208 44.6944C241.461 44.157 239.783 44.5799 239.459 45.639C239.135 46.6981 240.288 47.9923 242.035 48.5297C243.782 49.0671 245.461 48.6442 245.785 47.5851Z" fill="#383837"/>
<path d="M243.857 46.1968C244.007 45.7057 243.472 45.1055 242.662 44.8563C241.852 44.6071 241.073 44.8032 240.923 45.2944C240.773 45.7855 241.308 46.3856 242.118 46.6348C242.928 46.884 243.706 46.6879 243.857 46.1968Z" fill="#F6F6F6"/>
<path d="M233.709 43.7926C236.434 44.4176 239.155 42.6907 239.787 39.9355C240.419 37.1803 238.723 34.4402 235.998 33.8152C233.273 33.1902 230.552 34.9171 229.92 37.6723C229.288 40.4275 230.985 43.1676 233.709 43.7926Z" fill="#242423"/>
<path d="M254.47 59.7559C254.863 58.2774 257.947 59.3045 261.825 56.9718C264.499 55.3637 265.075 53.6477 267.367 53.5357C268.581 53.4765 270.151 53.8728 270.459 54.7641C270.762 55.6413 269.624 56.3661 269.89 57.7985C270.054 58.6809 270.533 58.6606 270.593 59.403C270.691 60.6119 269.536 62.0977 268.226 62.7302C267.548 63.0574 266.807 63.1663 266.357 63.9038C266.152 64.2395 266.182 64.4212 266.079 64.6249C265.455 65.8615 261.038 65.7977 257.606 63.5531C256.972 63.1383 254.075 61.2438 254.47 59.7559Z" fill="#EBE6E0"/>
<path d="M228.912 51.7403C229.731 50.9181 227.983 49.2612 228.131 45.8004C228.233 43.4146 229.142 42.3805 228.409 40.8165C228.022 39.9885 227.214 39.0971 226.529 39.2312C225.854 39.3633 225.785 40.3937 224.764 40.7612C224.135 40.9876 223.98 40.6619 223.478 40.9041C222.662 41.2985 222.105 42.6294 222.156 43.7395C222.182 44.314 222.372 44.847 222.052 45.4257C221.907 45.6891 221.779 45.7388 221.683 45.8844C221.102 46.7683 222.694 49.6761 225.353 51.1013C225.844 51.3647 228.088 52.5677 228.912 51.7403Z" fill="#EBE6E0"/>
<path d="M255.683 39.5038C257.492 39.1891 258.8 37.9844 258.606 36.8131C258.412 35.6419 256.788 34.9475 254.979 35.2622C253.171 35.5769 251.862 36.7815 252.056 37.9528C252.251 39.1241 253.874 39.8185 255.683 39.5038Z" fill="#EBE6E0"/>
<path d="M244.738 35.1954C245.655 34.4463 245.467 32.6732 244.318 31.2351C243.17 29.797 241.495 29.2384 240.578 29.9874C239.66 30.7365 239.848 32.5096 240.997 33.9477C242.146 35.3859 243.821 35.9445 244.738 35.1954Z" fill="#EBE6E0"/>
<path d="M233.634 42.4237C235.972 42.9599 238.307 41.4783 238.849 39.1145C239.391 36.7506 237.935 34.3997 235.598 33.8635C233.26 33.3273 230.925 34.8089 230.383 37.1727C229.841 39.5366 231.296 41.8875 233.634 42.4237Z" fill="#383837"/>
<path d="M233.563 37.5701C234.238 37.7249 234.912 37.2971 235.069 36.6147C235.225 35.9322 234.805 35.2535 234.13 35.0987C233.455 34.9439 232.781 35.3716 232.625 36.0541C232.468 36.7365 232.888 37.4153 233.563 37.5701Z" fill="#F6F6F6"/>
<path d="M235.467 39.7901C235.907 39.891 236.347 39.6122 236.449 39.1672C236.551 38.7223 236.277 38.2798 235.837 38.1788C235.397 38.0779 234.958 38.3568 234.855 38.8017C234.753 39.2467 235.027 39.6892 235.467 39.7901Z" fill="#F6F6F6"/>
<path d="M255.499 45.5349C256.174 45.6897 256.848 45.262 257.005 44.5795C257.161 43.8971 256.741 43.2183 256.066 43.0635C255.391 42.9087 254.717 43.3364 254.561 44.0189C254.404 44.7014 254.824 45.3801 255.499 45.5349Z" fill="#F6F6F6"/>
<path d="M257.402 47.7607C257.842 47.8616 258.281 47.5827 258.383 47.1378C258.485 46.6929 258.211 46.2503 257.771 46.1494C257.331 46.0485 256.892 46.3274 256.79 46.7723C256.688 47.2172 256.962 47.6598 257.402 47.7607Z" fill="#F6F6F6"/>
<path d="M251.292 26.6823C252.966 25.1201 253.737 23.2122 253.013 22.4207C252.29 21.6292 250.347 22.2539 248.673 23.8161C246.999 25.3782 246.228 27.2862 246.951 28.0776C247.675 28.8691 249.618 28.2444 251.292 26.6823Z" fill="#BC673E"/>
<path d="M253.333 28.4904C255.508 27.8106 257.019 26.4234 256.707 25.392C256.396 24.3606 254.38 24.0756 252.205 24.7554C250.03 25.4352 248.52 26.8224 248.831 27.8538C249.143 28.8852 251.158 29.1702 253.333 28.4904Z" fill="#BC673E"/>
</g>
<g opacity="0.56" clip-path="url(#clip2_3001_64182)">
<path d="M44.1406 105.494L46.4581 111.957C46.7721 112.856 47.7831 113.803 48.6998 114.071L54.1156 115.652C57.5788 116.664 58.1028 119.328 55.2531 121.551L50.442 125.332C49.6273 125.973 49.0606 127.328 49.1653 128.36L49.7575 133.825C50.2228 138.151 47.793 139.511 44.3324 136.865L39.5207 133.177C38.6517 132.511 37.11 132.326 36.0908 132.766L30.5438 135.211C26.573 136.967 24.5184 135.051 25.9911 130.975L27.8587 125.805C28.2044 124.827 27.9742 123.376 27.3339 122.561L23.5531 117.75C21.3273 114.918 22.4488 112.452 26.0532 112.287L31.6892 112.031C32.626 111.985 33.8322 111.304 34.3498 110.505L38.1297 104.773C40.1894 101.664 42.8917 101.988 44.1406 105.494Z" fill="#D6DFE0" stroke="#D6DFE0" stroke-width="1.63941" stroke-linecap="round" stroke-linejoin="round"/>
<g opacity="0.5">
<path fill-rule="evenodd" clip-rule="evenodd" d="M92.8578 75.0991C93.4554 74.6913 94.2704 74.8453 94.6782 75.443L99.9404 83.1568L104.556 84.0288C105.267 84.1631 105.734 84.8483 105.6 85.5592C105.466 86.2701 104.78 86.7375 104.07 86.6032L103.135 86.4267C102.469 87.8225 101.647 89.4214 100.69 91.2818L97.81 96.88C96.6659 99.1049 95.9646 100.469 94.9917 101.502C93.3169 103.28 91.0512 104.387 88.619 104.615C87.2062 104.748 85.6993 104.463 83.2411 103.998L82.7908 103.913C80.3325 103.449 78.8255 103.165 77.5585 102.526C75.3772 101.426 73.6716 99.5686 72.761 97.3017C72.2321 95.985 72.0767 94.4593 71.8231 91.9704L71.1844 85.7085C70.9721 83.6267 70.7896 81.8376 70.6786 80.2947L69.7444 80.1182C69.0335 79.9839 68.5661 79.2987 68.7004 78.5878C68.8347 77.8769 69.5199 77.4095 70.2308 77.5438L75.2628 78.4945L82.9766 73.2322C83.5743 72.8245 84.3893 72.9785 84.797 73.5762C85.2047 74.1738 85.0507 74.9888 84.4531 75.3965L78.9036 79.1823L96.2997 82.4689L92.5139 76.9194C92.1062 76.3218 92.2601 75.5068 92.8578 75.0991ZM83.7079 88.5332C83.8422 87.8223 83.3747 87.1371 82.6638 87.0028C81.9529 86.8685 81.2678 87.3359 81.1335 88.0468L79.8365 94.9119C79.7022 95.6228 80.1696 96.3079 80.8805 96.4422C81.5914 96.5766 82.2765 96.1091 82.4108 95.3982L83.7079 88.5332ZM90.5729 89.8302C90.7072 89.1193 90.2398 88.4341 89.5289 88.2998C88.818 88.1655 88.1328 88.6329 87.9985 89.3438L86.7015 96.2089C86.5672 96.9198 87.0346 97.6049 87.7455 97.7393C88.4564 97.8736 89.1416 97.4061 89.2759 96.6952L90.5729 89.8302Z" fill="#D6DFE0"/>
</g>
<path fill-rule="evenodd" clip-rule="evenodd" d="M128.294 42.9111C122.56 41.0589 116.515 44.7147 115.492 50.653L114.994 53.5439L114.669 63.0625C114.575 65.8219 116.321 68.3094 118.949 69.1581C120.951 69.8048 123.145 69.3891 124.771 68.0546L125.733 67.2657C128.979 64.6031 133.891 66.1899 134.966 70.248L135.161 70.9836C135.776 73.3086 137.532 75.1609 139.821 75.9002C143.168 76.9815 146.801 75.4369 148.345 72.2761L152.99 62.7657C155.635 57.3512 152.87 50.8498 147.136 48.9976C145.818 48.5717 144.425 48.4273 143.047 48.5736L142.009 48.6838C140.004 48.8967 139.195 48.9757 138.431 48.8965C137.368 48.7864 136.34 48.4543 135.413 47.9217C134.747 47.539 134.137 47.0015 132.636 45.6561L131.859 44.9594C130.827 44.0348 129.612 43.337 128.294 42.9111ZM126.957 50.0318C127.666 50.2606 128.054 51.0201 127.826 51.7283L127.135 53.8655L129.272 54.5558C129.981 54.7846 130.369 55.5441 130.14 56.2523C129.912 56.9605 129.152 57.3491 128.444 57.1204L126.307 56.43L125.616 58.5672C125.388 59.2754 124.628 59.664 123.92 59.4352C123.212 59.2065 122.823 58.4469 123.052 57.7388L123.742 55.6016L121.605 54.9113C120.897 54.6825 120.508 53.923 120.737 53.2148C120.966 52.5066 121.725 52.1179 122.434 52.3467L124.571 53.037L125.261 50.8999C125.49 50.1917 126.249 49.8031 126.957 50.0318ZM143.088 58.5466C144.032 58.8516 145.045 58.3334 145.35 57.3892C145.655 56.4449 145.137 55.4322 144.193 55.1272C143.249 54.8222 142.236 55.3404 141.931 56.2846C141.626 57.2289 142.144 58.2416 143.088 58.5466ZM138.564 60.8615C139.509 61.1665 140.521 60.6483 140.826 59.7041C141.131 58.7598 140.613 57.7471 139.669 57.4421C138.725 57.137 137.712 57.6553 137.407 58.5995C137.102 59.5437 137.62 60.5565 138.564 60.8615ZM147.665 61.9132C147.36 62.8574 146.347 63.3756 145.403 63.0706C144.459 62.7656 143.941 61.7529 144.246 60.8086C144.551 59.8644 145.563 59.3462 146.508 59.6512C147.452 59.9562 147.97 60.9689 147.665 61.9132ZM140.879 65.3855C141.823 65.6905 142.836 65.1723 143.141 64.228C143.446 63.2838 142.928 62.2711 141.984 61.966C141.039 61.661 140.027 62.1792 139.722 63.1235C139.417 64.0677 139.935 65.0805 140.879 65.3855Z" fill="#D6DFE0"/>
<path d="M143.047 48.5736C144.425 48.4273 145.818 48.5717 147.136 48.9976C139.892 45.974 135.768 44.6294 128.294 42.9111C129.612 43.337 130.827 44.0348 131.859 44.9594L132.636 45.6561C134.137 47.0015 134.747 47.539 135.413 47.9217C136.34 48.4543 137.368 48.7864 138.431 48.8965C139.195 48.9757 140.004 48.8967 142.009 48.6838L143.047 48.5736Z" fill="#D6DFE0"/>
<path opacity="0.4" d="M131.261 135.051C135.974 133.902 142.91 131.918 146.457 129.504C149.11 127.702 150.909 124.853 151.382 121.708C152.559 114.584 145.281 108.462 138.261 110.657C137.867 110.778 137.485 110.936 137.093 111.098C136.932 111.164 136.771 111.231 136.606 111.296C136.535 111.133 136.468 110.972 136.401 110.812C136.238 110.42 136.079 110.038 135.886 109.674C132.471 103.16 122.995 102.347 118.793 108.219C116.905 110.778 116.164 114.065 116.767 117.215C117.571 121.43 121.076 127.735 123.598 131.879C124.3 133.034 126.329 136.125 126.329 136.125C126.329 136.125 129.948 135.372 131.261 135.051Z" fill="#D6DFE0"/>
<path opacity="0.4" d="M45.1694 70.6801C48.7244 67.3788 53.8136 62.2662 55.7344 58.4294C57.172 55.5626 57.3547 52.1983 56.2342 49.2214C53.7894 42.4279 44.4507 40.6296 39.3907 45.9675C39.106 46.266 38.8492 46.59 38.5856 46.9226C38.4781 47.0584 38.3693 47.1956 38.257 47.3331C38.116 47.2253 37.9784 47.1169 37.8424 47.0097C37.509 46.7471 37.1843 46.4913 36.8382 46.2668C30.6808 42.2439 22.0112 46.1534 21.204 53.3282C20.8024 56.4835 21.7582 59.7143 23.82 62.1708C26.5761 65.4594 32.7098 69.2562 36.9319 71.6458C38.1084 72.3118 41.3858 74.0216 41.3858 74.0216C41.3858 74.0216 44.1789 71.6001 45.1694 70.6801Z" fill="#D6DFE0"/>
</g>
<g opacity="0.56" clip-path="url(#clip3_3001_64182)">
<path opacity="0.4" d="M443.859 105.494L441.542 111.957C441.228 112.856 440.217 113.803 439.3 114.071L433.884 115.652C430.421 116.664 429.897 119.328 432.747 121.551L437.558 125.332C438.373 125.973 438.939 127.328 438.835 128.36L438.242 133.825C437.777 138.151 440.207 139.511 443.668 136.865L448.479 133.177C449.348 132.511 450.89 132.326 451.909 132.766L457.456 135.211C461.427 136.967 463.482 135.051 462.009 130.975L460.141 125.805C459.796 124.827 460.026 123.376 460.666 122.561L464.447 117.75C466.673 114.918 465.551 112.452 461.947 112.287L456.311 112.031C455.374 111.985 454.168 111.304 453.65 110.505L449.87 104.773C447.811 101.664 445.108 101.988 443.859 105.494Z" fill="#D6DFE0" stroke="#D6DFE0" stroke-width="1.63941" stroke-linecap="round" stroke-linejoin="round"/>
<path fill-rule="evenodd" clip-rule="evenodd" d="M395.142 75.0991C394.545 74.6913 393.73 74.8453 393.322 75.443L388.06 83.1568L383.444 84.0288C382.733 84.1631 382.266 84.8483 382.4 85.5592C382.534 86.2701 383.22 86.7375 383.93 86.6032L384.865 86.4267C385.531 87.8225 386.353 89.4214 387.31 91.2818L390.19 96.88C391.334 99.1049 392.035 100.469 393.008 101.502C394.683 103.28 396.949 104.387 399.381 104.615C400.794 104.748 402.301 104.463 404.759 103.998L405.209 103.913C407.667 103.449 409.174 103.165 410.442 102.526C412.623 101.426 414.328 99.5686 415.239 97.3017C415.768 95.985 415.923 94.4593 416.177 91.9704L416.816 85.7085C417.028 83.6267 417.21 81.8376 417.321 80.2947L418.256 80.1182C418.966 79.9839 419.434 79.2987 419.3 78.5878C419.165 77.8769 418.48 77.4095 417.769 77.5438L412.737 78.4945L405.023 73.2322C404.426 72.8245 403.611 72.9785 403.203 73.5762C402.795 74.1738 402.949 74.9888 403.547 75.3965L409.096 79.1823L391.7 82.4689L395.486 76.9194C395.894 76.3218 395.74 75.5068 395.142 75.0991ZM404.292 88.5332C404.158 87.8223 404.625 87.1371 405.336 87.0028C406.047 86.8685 406.732 87.3359 406.867 88.0468L408.164 94.9119C408.298 95.6228 407.83 96.3079 407.12 96.4422C406.409 96.5766 405.723 96.1091 405.589 95.3982L404.292 88.5332ZM397.427 89.8302C397.293 89.1193 397.76 88.4341 398.471 88.2998C399.182 88.1655 399.867 88.6329 400.002 89.3438L401.299 96.2089C401.433 96.9198 400.965 97.6049 400.255 97.7393C399.544 97.8736 398.858 97.4061 398.724 96.6952L397.427 89.8302Z" fill="#D6DFE0"/>
<g opacity="0.4">
<path fill-rule="evenodd" clip-rule="evenodd" d="M359.706 42.9111C365.44 41.0589 371.485 44.7147 372.508 50.653L373.006 53.5439L373.331 63.0625C373.425 65.8219 371.679 68.3094 369.051 69.1581C367.049 69.8048 364.855 69.3891 363.229 68.0546L362.267 67.2657C359.021 64.6031 354.109 66.1899 353.034 70.248L352.839 70.9836C352.224 73.3086 350.468 75.1609 348.179 75.9002C344.832 76.9815 341.199 75.4369 339.655 72.2761L335.01 62.7657C332.365 57.3512 335.13 50.8498 340.864 48.9976C342.182 48.5717 343.575 48.4273 344.953 48.5736L345.991 48.6838C347.996 48.8967 348.805 48.9757 349.569 48.8965C350.632 48.7864 351.66 48.4543 352.587 47.9217C353.253 47.539 353.863 47.0015 355.364 45.6561L356.141 44.9594C357.173 44.0348 358.388 43.337 359.706 42.9111ZM361.043 50.0318C360.334 50.2606 359.946 51.0201 360.174 51.7283L360.865 53.8655L358.728 54.5558C358.019 54.7846 357.631 55.5441 357.86 56.2523C358.088 56.9605 358.848 57.3491 359.556 57.1204L361.693 56.43L362.384 58.5672C362.612 59.2754 363.372 59.664 364.08 59.4352C364.788 59.2065 365.177 58.4469 364.948 57.7388L364.258 55.6016L366.395 54.9113C367.103 54.6825 367.492 53.923 367.263 53.2148C367.034 52.5066 366.275 52.1179 365.566 52.3467L363.429 53.037L362.739 50.8999C362.51 50.1917 361.751 49.8031 361.043 50.0318ZM344.912 58.5466C343.968 58.8516 342.955 58.3334 342.65 57.3892C342.345 56.4449 342.863 55.4322 343.807 55.1272C344.751 54.8222 345.764 55.3404 346.069 56.2846C346.374 57.2289 345.856 58.2416 344.912 58.5466ZM349.436 60.8615C348.491 61.1665 347.479 60.6483 347.174 59.7041C346.869 58.7598 347.387 57.7471 348.331 57.4421C349.275 57.137 350.288 57.6553 350.593 58.5995C350.898 59.5437 350.38 60.5565 349.436 60.8615ZM340.335 61.9132C340.64 62.8574 341.653 63.3756 342.597 63.0706C343.541 62.7656 344.059 61.7529 343.754 60.8086C343.449 59.8644 342.437 59.3462 341.492 59.6512C340.548 59.9562 340.03 60.9689 340.335 61.9132ZM347.121 65.3855C346.177 65.6905 345.164 65.1723 344.859 64.228C344.554 63.2838 345.072 62.2711 346.016 61.966C346.961 61.661 347.973 62.1792 348.278 63.1235C348.583 64.0677 348.065 65.0805 347.121 65.3855Z" fill="#D6DFE0"/>
<path d="M344.953 48.5736C343.575 48.4273 342.182 48.5717 340.864 48.9976C348.108 45.974 352.232 44.6294 359.706 42.9111C358.388 43.337 357.173 44.0348 356.141 44.9594L355.364 45.6561C353.863 47.0015 353.253 47.539 352.587 47.9217C351.66 48.4543 350.632 48.7864 349.569 48.8965C348.805 48.9757 347.996 48.8967 345.991 48.6838L344.953 48.5736Z" fill="#D6DFE0"/>
</g>
<path opacity="0.7" d="M356.739 135.051C352.026 133.902 345.09 131.918 341.542 129.504C338.89 127.702 337.09 124.853 336.618 121.708C335.441 114.584 342.719 108.462 349.739 110.657C350.133 110.778 350.515 110.936 350.907 111.098C351.067 111.164 351.229 111.231 351.394 111.296C351.465 111.133 351.532 110.972 351.599 110.812C351.762 110.42 351.921 110.038 352.113 109.674C355.529 103.16 365.004 102.347 369.207 108.219C371.095 110.778 371.835 114.065 371.232 117.215C370.429 121.43 366.924 127.735 364.402 131.879C363.7 133.034 361.671 136.125 361.671 136.125C361.671 136.125 358.052 135.372 356.739 135.051Z" fill="#D6DFE0"/>
<path d="M442.831 70.6801C439.276 67.3788 434.187 62.2662 432.266 58.4294C430.828 55.5626 430.645 52.1983 431.766 49.2214C434.211 42.4279 443.549 40.6296 448.609 45.9675C448.894 46.266 449.151 46.59 449.415 46.9226C449.522 47.0584 449.631 47.1956 449.743 47.3331C449.884 47.2253 450.022 47.1169 450.158 47.0097C450.491 46.7471 450.816 46.4913 451.162 46.2668C457.319 42.2439 465.989 46.1534 466.796 53.3282C467.198 56.4835 466.242 59.7143 464.18 62.1708C461.424 65.4594 455.29 69.2562 451.068 71.6458C449.892 72.3118 446.614 74.0216 446.614 74.0216C446.614 74.0216 443.821 71.6001 442.831 70.6801Z" fill="#D6DFE0"/>
</g>
<defs>
<radialGradient id="paint0_radial_3001_64182" cx="0" cy="0" r="1" gradientTransform="matrix(318.682 -93.8864 54.0891 168.045 317.506 9.19823)" gradientUnits="userSpaceOnUse">
<stop offset="0.00559" stop-color="#F2601B"/>
<stop offset="1" stop-color="#FFC61F"/>
</radialGradient>
<radialGradient id="paint1_radial_3001_64182" cx="0" cy="0" r="1" gradientUnits="userSpaceOnUse" gradientTransform="translate(349.718 94.0072) scale(111.755 106.917)">
<stop offset="0.00559" stop-color="#F2611B"/>
<stop offset="1" stop-color="#FEB10A"/>
</radialGradient>
<radialGradient id="paint2_radial_3001_64182" cx="0" cy="0" r="1" gradientTransform="matrix(71.7132 -33.3152 17.257 34.0008 243.763 105.895)" gradientUnits="userSpaceOnUse">
<stop offset="0.00559" stop-color="#F2611B"/>
<stop offset="1" stop-color="#FEB10A"/>
</radialGradient>
<radialGradient id="paint3_radial_3001_64182" cx="0" cy="0" r="1" gradientTransform="matrix(79.8005 -23.5099 13.5443 42.0797 253.622 92.4539)" gradientUnits="userSpaceOnUse">
<stop offset="0.00559" stop-color="#F2601B"/>
<stop offset="1" stop-color="#FFC61F"/>
</radialGradient>
<clipPath id="clip0_3001_64182">
<rect width="138" height="105" fill="white" transform="translate(173 41.5)"/>
</clipPath>
<clipPath id="clip1_3001_64182">
<rect width="127.727" height="100.207" fill="white" transform="translate(231.919) rotate(26.5451)"/>
</clipPath>
<clipPath id="clip2_3001_64182">
<rect width="136.712" height="103.598" fill="white" transform="translate(20 39.3984)"/>
</clipPath>
<clipPath id="clip3_3001_64182">
<rect width="136.712" height="103.598" fill="white" transform="matrix(-1 0 0 1 468 39.3984)"/>
</clipPath>
</defs>
</svg>
